<svg xmlns="http://www.w3.org/2000/svg" xmlns:xlink="http://www.w3.org/1999/xlink" version="1.1" width="256" height="256" viewBox="0 0 256 256" xml:space="preserve">
<g style="stroke: none; stroke-width: 0; stroke-dasharray: none; stroke-linecap: butt; stroke-linejoin: miter; stroke-miterlimit: 10; fill: none; fill-rule: nonzero; opacity: 1;" transform="translate(1.4065934065934016 1.4065934065934016) scale(2.81 2.81)">
	<path d="M 8.593 71.904 c -1.416 0 -2.734 -0.563 -3.712 -1.587 c -0.978 -1.022 -1.482 -2.364 -1.418 -3.778 l 1.2 -26.849 l -2.504 -2.62 c -1.465 -1.532 -2.249 -3.626 -2.15 -5.745 l 0.571 -12.276 c 0.026 -0.552 0.518 -0.965 1.045 -0.953 c 0.552 0.026 0.978 0.494 0.953 1.045 L 2.006 31.418 c -0.073 1.575 0.509 3.131 1.598 4.27 l 2.799 2.929 c 0.188 0.197 0.288 0.463 0.276 0.735 L 5.46 66.629 c -0.039 0.863 0.269 1.683 0.866 2.307 c 1.195 1.25 3.338 1.25 4.533 0 c 0.597 -0.624 0.905 -1.443 0.866 -2.307 l -1.219 -27.277 c -0.012 -0.272 0.087 -0.538 0.276 -0.735 l 2.799 -2.929 c 1.089 -1.139 1.672 -2.695 1.599 -4.27 l -0.571 -12.276 c -0.025 -0.552 0.401 -1.02 0.953 -1.045 c 0.532 -0.015 1.02 0.4 1.045 0.953 l 0.571 12.276 c 0.099 2.119 -0.686 4.212 -2.151 5.745 l -2.503 2.62 l 1.2 26.85 c 0.063 1.414 -0.44 2.756 -1.418 3.779 C 11.327 71.341 10.009 71.904 8.593 71.904 z" style="stroke: none; stroke-width: 1; stroke-dasharray: none; stroke-linecap: butt; stroke-linejoin: miter; stroke-miterlimit: 10; fill: rgb(0,0,0); fill-rule: nonzero; opacity: 1;" transform=" matrix(1 0 0 1 0 0) " stroke-linecap="round"/>
	<path d="M 6.121 33.776 c -0.552 0 -1 -0.448 -1 -1 V 19.096 c 0 -0.552 0.448 -1 1 -1 s 1 0.448 1 1 v 13.681 C 7.121 33.329 6.674 33.776 6.121 33.776 z" style="stroke: none; stroke-width: 1; stroke-dasharray: none; stroke-linecap: butt; stroke-linejoin: miter; stroke-miterlimit: 10; fill: rgb(0,0,0); fill-rule: nonzero; opacity: 1;" transform=" matrix(1 0 0 1 0 0) " stroke-linecap="round"/>
	<path d="M 11.064 33.776 c -0.552 0 -1 -0.448 -1 -1 V 19.096 c 0 -0.552 0.448 -1 1 -1 s 1 0.448 1 1 v 13.681 C 12.064 33.329 11.617 33.776 11.064 33.776 z" style="stroke: none; stroke-width: 1; stroke-dasharray: none; stroke-linecap: butt; stroke-linejoin: miter; stroke-miterlimit: 10; fill: rgb(0,0,0); fill-rule: nonzero; opacity: 1;" transform=" matrix(1 0 0 1 0 0) " stroke-linecap="round"/>
	<path d="M 45.476 71.904 c -14.835 0 -26.904 -12.069 -26.904 -26.904 s 12.069 -26.904 26.904 -26.904 S 72.38 30.165 72.38 45 S 60.311 71.904 45.476 71.904 z M 45.476 20.096 c -13.733 0 -24.904 11.172 -24.904 24.904 s 11.172 24.904 24.904 24.904 S 70.38 58.732 70.38 45 S 59.208 20.096 45.476 20.096 z" style="stroke: none; stroke-width: 1; stroke-dasharray: none; stroke-linecap: butt; stroke-linejoin: miter; stroke-miterlimit: 10; fill: rgb(0,0,0); fill-rule: nonzero; opacity: 1;" transform=" matrix(1 0 0 1 0 0) " stroke-linecap="round"/>
	<path d="M 45.476 63.69 c -10.305 0 -18.69 -8.384 -18.69 -18.69 c 0 -10.305 8.384 -18.689 18.69 -18.689 c 10.306 0 18.69 8.384 18.69 18.689 C 64.165 55.306 55.781 63.69 45.476 63.69 z M 45.476 28.311 c -9.203 0 -16.69 7.487 -16.69 16.689 s 7.487 16.69 16.69 16.69 c 9.202 0 16.69 -7.487 16.69 -16.69 S 54.678 28.311 45.476 28.311 z" style="stroke: none; stroke-width: 1; stroke-dasharray: none; stroke-linecap: butt; stroke-linejoin: miter; stroke-miterlimit: 10; fill: rgb(0,0,0); fill-rule: nonzero; opacity: 1;" transform=" matrix(1 0 0 1 0 0) " stroke-linecap="round"/>
	<path d="M 35.367 46 c -0.552 0 -1 -0.448 -1 -1 c 0 -6.125 4.983 -11.108 11.108 -11.108 c 0.553 0 1 0.448 1 1 s -0.447 1 -1 1 c -5.022 0 -9.108 4.086 -9.108 9.108 C 36.367 45.552 35.919 46 35.367 46 z" style="stroke: none; stroke-width: 1; stroke-dasharray: none; stroke-linecap: butt; stroke-linejoin: miter; stroke-miterlimit: 10; fill: rgb(0,0,0); fill-rule: nonzero; opacity: 1;" transform=" matrix(1 0 0 1 0 0) " stroke-linecap="round"/>
	<path d="M 84.874 71.904 c -1.412 0 -2.729 -0.563 -3.704 -1.583 c -0.977 -1.021 -1.48 -2.36 -1.417 -3.772 l 1.044 -15.65 h -0.501 c -1.022 0 -1.975 -0.458 -2.612 -1.256 c -0.639 -0.799 -0.875 -1.829 -0.65 -2.826 l 5.94 -26.269 c 0.311 -1.373 1.51 -2.331 2.918 -2.331 c 1.648 0 2.99 1.342 2.99 2.991 v 28.658 l 1.112 16.661 c 0.063 1.433 -0.439 2.772 -1.416 3.793 C 87.603 71.342 86.286 71.904 84.874 71.904 z M 85.892 20.219 c -0.467 0 -0.864 0.317 -0.967 0.772 l -5.94 26.269 c -0.091 0.4 0.005 0.814 0.262 1.136 c 0.256 0.321 0.639 0.505 1.05 0.505 h 1.065 c 0.406 0 0.799 0.17 1.076 0.467 c 0.276 0.297 0.42 0.699 0.393 1.104 l -1.08 16.19 c -0.037 0.839 0.27 1.655 0.865 2.277 c 1.189 1.246 3.328 1.246 4.518 0 c 0.596 -0.622 0.902 -1.438 0.864 -2.299 l -1.113 -16.673 c -0.001 -0.022 -0.002 -0.044 -0.002 -0.066 V 21.209 C 86.882 20.663 86.438 20.219 85.892 20.219 z" style="stroke: none; stroke-width: 1; stroke-dasharray: none; stroke-linecap: butt; stroke-linejoin: miter; stroke-miterlimit: 10; fill: rgb(0,0,0); fill-rule: nonzero; opacity: 1;" transform=" matrix(1 0 0 1 0 0) " stroke-linecap="round"/>
</g>
</svg>